<svg xmlns="http://www.w3.org/2000/svg" xmlns:xlink="http://www.w3.org/1999/xlink" id="Layer_1" data-name="Layer 1" viewBox="450 250 900 1300">
    <defs>
        <style>.cls-1{fill:url(#linear-gradient);}.cls-2{fill:url(#linear-gradient-2);}.cls-3{fill:url(#linear-gradient-3);}.cls-4{fill:#3ec6ef;}.cls-5{fill:#121a65;}.cls-6{fill:url(#linear-gradient-4);}</style>
        <linearGradient id="linear-gradient" x1="417.25" y1="450.24" x2="1203.43" y2="965.77" gradientTransform="translate(2.03 -2.57) rotate(0.17)" gradientUnits="userSpaceOnUse"><stop offset="0" stop-color="#121a65"/><stop offset="0.48" stop-color="#2974ad"/><stop offset="0.83" stop-color="#38afdd"/><stop offset="1" stop-color="#3ec6ef"/>
        </linearGradient>
        <linearGradient id="linear-gradient-2" x1="412.65" y1="457.26" x2="1198.83" y2="972.79" xlink:href="#linear-gradient"/>
        <linearGradient id="linear-gradient-3" x1="303.24" y1="624.12" x2="1089.41" y2="1139.64" xlink:href="#linear-gradient"/>
        <linearGradient id="linear-gradient-4" x1="552.27" y1="244.35" x2="1338.44" y2="759.88" xlink:href="#linear-gradient"/>
    </defs>
    <polygon class="cls-1" points="650.17 542.06 650 602.02 601.62 630.1 601.95 515.27 650.17 542.06"/>
    <polygon class="cls-2" points="701.31 687.63 1052.23 892.55 1052.56 776.72 1103.93 806.45 1103.42 980.31 649.67 716.95 701.31 687.63"/>
    <polygon class="cls-3" points="704.02 861.54 651.94 891.39 903.88 1036.91 904.05 979.73 704.02 861.54"/>
    <polygon class="cls-4" points="651.3 776.03 551.65 719.39 1003.08 458.17 1002.91 516.43 649.67 716.95 701.52 747.04 651.3 776.03"/>
    <polygon class="cls-4" points="1154.79 544.46 1204.97 516.45 1104.93 458.46 1104.76 516.73 1154.79 544.46"/>
    <polygon class="cls-4" points="851.91 428.61 852.07 373.86 601.95 515.27 650.17 542.06 851.91 428.61"/>
    <polygon class="cls-5" points="1204.97 516.45 1154.79 544.46 1154.11 778.06 1204.14 804.92 1204.97 516.45"/>
    <polygon class="cls-5" points="1052.23 892.55 1055.38 370.87 953.76 428.9 953.59 487.11 1003.08 458.17 1003.89 864.54 1052.23 892.55"/>
    <polygon class="cls-5" points="1001.57 980.01 952.25 951.28 903.39 979.34 903.88 1036.91 1001.57 980.01"/>
    <path class="cls-5" d="M552.33,483.44l-.68,236L851.57,546.78l1.75,112.63-302,174.34-.17,58.16,351.24-202.1,1.18-405.39Zm299.41,4.82L601.62,630.1,602,515.27,852.07,373.86Z"/>
    <path class="cls-6" d="M1055.38,370.87l-4.8,347.63L953.1,658.63l1-347.58-50.53-26.63-1.18,405.39,351.29,203.32,1.17-403.26Zm148.76,434.06-100.05-53.74.84-292.73,100,58Z"/>
    <path class="cls-4" d="M1203.8,922.39l49.88-29.26L902.39,689.81,551.15,891.91,902.39,1096l201-115.73L799.24,803.76l104.15-56.08ZM1001.57,980l-97.69,56.9L651.94,891.39l99.56-57.06Z"/>
    <path xmlns="http://www.w3.org/2000/svg" class="cls-5" d="M340.39,1265.66v39.21H415.3a5.58,5.58,0,0,1,5.85,5.26v31.31a5.58,5.58,0,0,1-5.85,5.27H340.39v76.08c0,2.34-2.34,5-6.15,5H301.76c-3.8,0-6.14-2.64-6.14-5V1228.2c0-2.63,2.34-5.27,6.14-5.27H431.39c3.81,0,6.44,2.64,6.44,5.27v32.19c0,2.63-2.63,5.27-6.44,5.27Z"/>
    <path class="cls-5" d="M559,1404.36H500.44l-7.31,20.19v-.3c-.59,2-3.22,3.52-6.15,3.52H452.16c-5,0-7-3.52-5.56-7,25.17-64.37,52.38-134.6,77.55-199,2-4.39,9.36-4.39,11.41,0l77.54,199c1.46,3.51-.88,7-5.27,7h-35.4c-2.34,0-5-1.47-5.56-3.52v.3ZM512.15,1369h35.11L537,1338.52a221.72,221.72,0,0,1-7-28.39,209.9,209.9,0,0,1-7.32,28.39Z"/>
    <path class="cls-5" d="M631.53,1230.25c0-2.63,2.63-5,6.15-5h31.89c3.8,0,6.15,2.34,6.15,5v192.54c0,2.34-2.35,5-6.15,5H637.68c-3.52,0-6.15-2.64-6.15-5Z"/>
    <path class="cls-5" d="M773.45,1346.71H758.52v76.08c0,2.34-2.63,5-6.43,5h-31.9c-3.51,0-5.85-2.64-5.85-5V1230.25c0-2.63,2.34-5,5.85-5h63.5c12,0,70.23.58,70.23,61.15,0,30.43-15.8,46.53-35.7,54.43,6.14,13.17,12.87,28.09,19,41l17.85,38.91c1.46,3.51-.59,7-5.27,7H814.71c-1.76,0-5-1.76-5.56-3.22Zm-14.93-38.92h25.17c7.31,0,26-1.46,26-20.48,0-18.73-20.77-20.78-26-20.78H758.52Z"/>
    <path class="cls-4" d="M1031.24,1284.68c0,62,-70.80999999999995,62,-70.80999999999995,62h-26.340000000000032v76.07999999999993c0,2.339999999999918,-2.6299999999999955,5,-6.139999999999986,5h-32.48000000000002c-3.8099999999999454,0,-6.149999999999977,-2.6400000000001,-6.149999999999977,-5v-113.5c0,-2.6400000000001,2.340000000000032,-5.269999999999982,6.149999999999977,-5.269999999999982h20.769999999999982c-5.269999999999982,-7.900000000000091,-10,-15.799999999999955,-15.210000000000036,-23.700000000000045c-3.519999999999982,-6.150000000000091,-8.200000000000045,-12.88000000000011,-11.710000000000036,-19v-33.08999999999992c0,-2.630000000000109,2.340000000000032,-5.269999999999982,6.149999999999977,-5.269999999999982h65s70.7700000000001,0,70.7700000000001,61.75ZM940.82,1265.68l24,38c8.779999999999973,-1.1700000000000728,21.649999999999977,-6.440000000000055,21.649999999999977,-19c0,-19,-20.769999999999982,-19,-26,-19Z"/>
    <path class="cls-4" d="M1170.23,1385c3.7999999999999545,0,6.440000000000055,2.6400000000001,6.440000000000055,5.269999999999982v32.48000000000002c0,2.339999999999918,-2.6400000000001,5,-6.440000000000055,5h-104.75999999999999c-3.509999999999991,0,-6.1400000000001,-2.6400000000001,-6.1400000000001,-5v-194.54999999999995c0,-2.630000000000109,2.630000000000109,-5.269999999999982,6.1400000000001,-5.269999999999982h32.77999999999997c3.509999999999991,0,6.1400000000001,2.6400000000001,6.1400000000001,5.269999999999982v156.79999999999995Z"/>
    <path class="cls-4" d="M1300.15,1404.36h-58.53l-7.31,20.19v-.3c-.59,2-3.22,3.52-6.15,3.52h-34.82c-5,0-7-3.52-5.56-7,25.17-64.37,52.38-134.6,77.54-199,2-4.39,9.37-4.39,11.42,0l77.54,199c1.46,3.51-.88,7-5.27,7h-35.4c-2.34,0-5-1.47-5.56-3.52v.3ZM1253.33,1369h35.11l-10.24-30.43a221.72,221.72,0,0,1-7-28.39,209.9,209.9,0,0,1-7.32,28.39Z"/>
    <path class="cls-4" d="M1514.92,1222.93c5.27,0,7.9,4.69,4.69,8.2h.29l-72,100.95v90.71c0,2.34-2.34,5-6.14,5h-32.48c-3.51,0-6.15-2.64-6.15-5v-90.71c-12.87-18.43-26.62-36.87-39.5-55.3-10.53-14.64-22-31-32.48-45.65h.29c-3.22-3.51-.58-8.2,4.68-8.2h39.51c1.46,0,4.09.59,5.26,2,15.22,21.66,29.27,40.38,44.78,62l44.47-62a9.11,9.11,0,0,1,5-2Z"/>
</svg>
