<svg width="177" height="43" viewBox="0 0 177 43" fill="none" xmlns="http://www.w3.org/2000/svg">
<path d="M69.4311 21.3606V28.712H66.8858V21.5272C66.8858 19.8917 66.0138 18.943 64.5975 18.943C63.019 18.943 62.0286 19.9869 62.0286 22.0713V28.712H59.4834V21.5272C59.4834 19.8917 58.6823 18.943 57.266 18.943C55.7348 18.943 54.6498 20.0107 54.6498 22.0713V28.712H52.1046V16.8552H54.6498V18.2799C55.4036 17.117 56.5359 16.5492 58.0198 16.5492C59.5273 16.5492 60.636 17.1647 61.3661 18.4228C62.1435 17.1647 63.3468 16.5492 64.9727 16.5492C67.6396 16.5458 69.4311 18.4194 69.4311 21.3606Z" fill="white"/>
<path d="M77.7766 26.5766C78.8379 26.5766 79.7337 26.223 80.4401 25.5089C81.1465 24.7745 81.5015 23.8734 81.5015 22.7819C81.5015 21.6904 81.1465 20.7894 80.4401 20.0787C79.7337 19.3442 78.8379 18.9872 77.7766 18.9872C76.7152 18.9872 75.8195 19.3442 75.113 20.0787C74.4066 20.7894 74.0517 21.6904 74.0517 22.7819C74.0517 23.8734 74.4066 24.7745 75.113 25.5089C75.8195 26.223 76.7152 26.5766 77.7766 26.5766ZM81.5015 16.8552H84.0467V28.712H81.5015V27.0051C80.5347 28.355 79.1692 29.0214 77.3777 29.0214C75.7519 29.0214 74.3829 28.4298 73.2269 27.2193C72.0709 26.0088 71.5064 24.5161 71.5064 22.7853C71.5064 21.0308 72.0709 19.5618 73.2269 18.3513C74.3829 17.1408 75.7485 16.5492 77.3777 16.5492C79.1692 16.5492 80.5347 17.2123 81.5015 18.5418V16.8552Z" fill="white"/>
<path d="M91.4491 21.67C93.2643 22.0746 95.6202 22.8329 95.5729 25.3695C95.5729 26.5086 95.1267 27.4097 94.2513 28.0489C93.3758 28.6882 92.2942 29.0214 90.9759 29.0214C88.6436 29.0214 86.9198 27.9775 86.166 26.2468L88.3597 24.9649C88.762 26.104 89.634 26.6718 90.9759 26.6718C92.3178 26.6718 92.9803 26.223 92.9803 25.3457C92.9803 24.5875 91.99 24.1352 90.7427 23.8258C88.9749 23.3769 86.5919 22.6629 86.6426 20.1739C86.6426 19.0824 87.0448 18.2051 87.8696 17.5421C88.6943 16.879 89.732 16.5458 90.959 16.5458C92.9161 16.5458 94.4946 17.4707 95.3194 19.011L93.173 20.2215C92.7708 19.3204 92.017 18.8682 90.9556 18.8682C89.9889 18.8682 89.2352 19.2966 89.2352 20.1263C89.2352 20.9117 90.2222 21.313 91.4491 21.67Z" fill="white"/>
<path d="M103.922 19.3204H100.998V25.0125C100.998 26.529 101.988 26.5052 103.922 26.4134V28.712C100.031 29.188 98.4527 28.1203 98.4527 25.0125V19.3204H96.2827V16.8552H98.4527V14.2948L100.998 13.5365V16.8552H103.922V19.3204Z" fill="white"/>
<path d="M114.671 21.7856C114.316 19.8645 112.974 18.8682 111.301 18.8682C109.414 18.8682 108.096 19.9835 107.741 21.7856H114.671ZM107.765 23.8734C108.144 25.6756 109.58 26.6718 111.537 26.6718C112.879 26.6718 113.893 26.172 114.579 25.2029L116.678 26.4372C115.522 28.168 113.802 29.0214 111.517 29.0214C109.607 29.0214 108.052 28.4298 106.873 27.2669C105.693 26.0802 105.105 24.5875 105.105 22.7853C105.105 21.007 105.693 19.5346 106.849 18.3513C108.005 17.1408 109.512 16.5492 111.328 16.5492C113.048 16.5492 114.461 17.1646 115.57 18.3751C116.678 19.5856 117.243 21.0784 117.243 22.8091C117.243 23.0709 117.219 23.4246 117.148 23.8768H107.765V23.8734Z" fill="white"/>
<path d="M122.026 18.8478C122.661 17.3789 123.888 16.641 125.656 16.641V19.4156C124.689 19.3442 123.841 19.5822 123.111 20.1263C122.381 20.6465 122.026 21.5238 122.026 22.7343V28.712H119.48V16.8552H122.026V18.8478Z" fill="white"/>
<path d="M132.612 26.5766C133.674 26.5766 134.569 26.223 135.276 25.5089C135.982 24.7745 136.337 23.8734 136.337 22.7819C136.337 21.6904 135.986 20.7893 135.276 20.0787C134.569 19.3442 133.674 18.9872 132.612 18.9872C131.551 18.9872 130.655 19.3442 129.949 20.0787C129.242 20.7893 128.887 21.6904 128.887 22.7819C128.887 23.8734 129.239 24.7745 129.949 25.5089C130.655 26.223 131.551 26.5766 132.612 26.5766ZM136.337 12.1118H138.882V28.712H136.337V27.0051C135.37 28.3584 134.005 29.0214 132.213 29.0214C130.588 29.0214 129.219 28.4298 128.063 27.2193C126.907 26.0088 126.342 24.5161 126.342 22.7853C126.342 21.0308 126.907 19.5618 128.063 18.3513C129.219 17.1408 130.584 16.5492 132.213 16.5492C134.005 16.5492 135.374 17.2122 136.337 18.5418V12.1118Z" fill="#FF3C00"/>
<path d="M147.464 26.5766C148.526 26.5766 149.422 26.223 150.128 25.5089C150.834 24.7745 151.189 23.8734 151.189 22.7819C151.189 21.6904 150.838 20.7894 150.128 20.0787C149.422 19.3442 148.526 18.9872 147.464 18.9872C146.403 18.9872 145.507 19.3442 144.801 20.0787C144.095 20.7894 143.74 21.6904 143.74 22.7819C143.74 23.8734 144.095 24.7745 144.801 25.5089C145.507 26.223 146.403 26.5766 147.464 26.5766ZM151.189 16.8552H153.735V28.712H151.189V27.0051C150.223 28.355 148.857 29.0214 147.066 29.0214C145.44 29.0214 144.071 28.4298 142.918 27.2193C141.762 26.0088 141.198 24.5161 141.198 22.7853C141.198 21.0308 141.762 19.5618 142.918 18.3513C144.074 17.1408 145.44 16.5492 147.066 16.5492C148.857 16.5492 150.226 17.2123 151.189 18.5418V16.8552Z" fill="#FF3C00"/>
<path d="M163.28 19.3204H160.356V25.0125C160.356 26.529 161.347 26.5052 163.28 26.4134V28.712C159.39 29.188 157.811 28.1203 157.811 25.0125V19.3204H155.641V16.8552H157.811V14.2948L160.356 13.5365V16.8552H163.28V19.3204Z" fill="#FF3C00"/>
<path d="M170.73 26.5766C171.791 26.5766 172.687 26.223 173.393 25.5089C174.1 24.7745 174.455 23.8734 174.455 22.7819C174.455 21.6904 174.103 20.7894 173.393 20.0787C172.687 19.3442 171.791 18.9872 170.73 18.9872C169.669 18.9872 168.773 19.3442 168.066 20.0787C167.36 20.7894 167.005 21.6904 167.005 22.7819C167.005 23.8734 167.36 24.7745 168.066 25.5089C168.776 26.223 169.672 26.5766 170.73 26.5766ZM174.455 16.8552H177V28.712H174.455V27.0051C173.488 28.355 172.122 29.0214 170.331 29.0214C168.705 29.0214 167.336 28.4298 166.184 27.2193C165.028 26.0088 164.463 24.5161 164.463 22.7853C164.463 21.0308 165.028 19.5618 166.184 18.3513C167.34 17.1408 168.705 16.5492 170.331 16.5492C172.122 16.5492 173.491 17.2123 174.455 18.5418V16.8552Z" fill="#FF3C00"/>
<path d="M21.0074 40.1676C20.9601 40.188 20.9128 40.1982 20.8587 40.1982C20.8046 40.1982 20.7573 40.188 20.71 40.1676L3.54237 31.2588L11.6682 18.6438L20.8452 23.3804L30.0594 18.6438L38.2393 31.2248L21.0074 40.1676ZM2.7886 12.3668C2.79198 12.2274 2.86972 12.105 2.98465 12.0438C2.98803 12.0404 2.98803 12.037 2.99141 12.037C2.99479 12.0336 2.99817 12.037 3.00155 12.0336L20.6863 2.84604C20.737 2.81884 20.7979 2.80523 20.8587 2.80523C20.9229 2.80523 20.9838 2.82224 21.0379 2.85284L38.7193 12.0404C38.7227 12.0404 38.726 12.0404 38.726 12.0438C38.7294 12.0438 38.7294 12.0472 38.7328 12.0506C38.8477 12.1152 38.9255 12.2376 38.9255 12.3804V12.3838V12.3872V27.2295L31.0126 15.0395L20.852 20.2657L10.715 15.0361L2.7886 27.3383V12.3872C2.7886 12.3838 2.78522 12.3804 2.78522 12.377C2.7886 12.3736 2.7886 12.3702 2.7886 12.3668ZM41.7174 12.4314C41.7174 12.411 41.7174 12.394 41.7174 12.3736C41.7174 12.2716 41.7107 12.1696 41.7005 12.071C41.6059 11.1155 41.0921 10.2553 40.3079 9.72481C40.2403 9.67721 40.1693 9.63301 40.0984 9.5922C40.0679 9.5752 40.0375 9.5582 40.0037 9.5412C39.9733 9.5242 39.9463 9.5106 39.9158 9.49699L22.3561 0.377432C22.3257 0.36043 22.2953 0.346829 22.2649 0.329828C21.8322 0.11561 21.3455 0 20.8621 0C20.4024 0 19.9427 0.102009 19.527 0.295825C19.483 0.316226 19.4391 0.340028 19.3951 0.36043C19.385 0.367231 19.3748 0.370631 19.3647 0.377432L1.82526 9.49019C1.78808 9.5072 1.75428 9.5242 1.7171 9.5412C1.55486 9.62621 1.39937 9.72481 1.2574 9.84042C0.55772 10.3811 0.111544 11.1767 0.0202807 12.0438C0.00676024 12.156 0 12.2648 0 12.377C0 12.4144 0 12.4518 0.00338012 12.4926V30.521C0 30.5584 0 30.5958 0 30.6332C0 30.7352 0.00676024 30.8372 0.0169006 30.9358C0.118304 32.0171 0.763907 32.9726 1.734 33.469L19.4357 42.6566C19.4999 42.6906 19.5608 42.7178 19.6284 42.7484C20.0205 42.915 20.4362 43 20.8621 43C21.288 43 21.7038 42.915 22.0958 42.7484C22.1601 42.7212 22.2243 42.6906 22.2885 42.6566L39.9733 33.4792C40.9873 32.9692 41.6566 31.9355 41.7174 30.8032C41.7208 30.7454 41.7242 30.691 41.7242 30.6332C41.7242 30.6162 41.7242 30.5958 41.7242 30.5754V12.4314H41.7174Z" fill="#FF3C00"/>
</svg>
